<?xml version="1.0" encoding="UTF-8" standalone="no"?>
<svg
   xmlns:dc="http://purl.org/dc/elements/1.1/"
   xmlns:cc="http://creativecommons.org/ns#"
   xmlns:rdf="http://www.w3.org/1999/02/22-rdf-syntax-ns#"
   xmlns:svg="http://www.w3.org/2000/svg"
   xmlns="http://www.w3.org/2000/svg"
   xmlns:xlink="http://www.w3.org/1999/xlink"
   height="101.05833mm"
   width="101.05833mm"
   version="1.1"
   id="Layer_1"
   x="0px"
   y="0px"
   viewBox="0 0 381.95275 381.95278"
   xml:space="preserve"><metadata
     id="metadata81"><rdf:RDF><cc:Work
         rdf:about=""><dc:format>image/svg+xml</dc:format><dc:type
           rdf:resource="http://purl.org/dc/dcmitype/StillImage" /><dc:title></dc:title></cc:Work></rdf:RDF></metadata><defs
     id="defs79"><defs
       id="defs29"><circle
         id="SVGID_12_"
         cx="29.799999"
         cy="36.700001"
         r="9" /></defs><clipPath
       id="SVGID_3_"><use
         xlink:href="#SVGID_12_"
         style="overflow:visible"
         id="use33"
         x="0"
         y="0"
         width="100%"
         height="100%" /></clipPath></defs><style
     type="text/css"
     id="style2">
	.st0{fill:none;stroke:#FFD62B;stroke-width:3;stroke-miterlimit:10;}
	.st1{fill:#B0C3C6;}
	.st2{fill:none;stroke:#DEE7E8;stroke-miterlimit:10;}
	.st3{fill:#00A6E2;}
	.st4{fill:none;stroke:#B0C3C6;stroke-width:2;stroke-miterlimit:10;}
	.st5{fill:#666666;}
	.st6{fill:none;stroke:#B0C3C6;stroke-width:2;stroke-linejoin:round;stroke-miterlimit:10;}
	.st7{fill:#00C9ED;}
	.st8{fill:#FFFFFF;stroke:#B0C3C6;stroke-width:2;stroke-linejoin:round;stroke-miterlimit:10;}
	.st9{fill:#303030;}
	.st10{opacity:0.4;fill:#F6F6F6;}
	.st11{fill:none;stroke:#999999;stroke-width:2;stroke-miterlimit:10;}
	.st12{fill:#999999;}
	.st13{fill:#FFFFFF;}
	.st14{clip-path:url(#SVGID_3_);fill:#2F3537;}
	.st15{opacity:0.3;fill:none;stroke:#9FB1B3;stroke-width:2;stroke-miterlimit:10;}
	.st16{fill:none;stroke:#FFFFFF;stroke-miterlimit:10;}
	.st17{fill:#FFFFFF;stroke:#FFFFFF;stroke-miterlimit:10;}
	.st18{fill:none;stroke:#303030;stroke-miterlimit:10;}
	.st19{opacity:0.8;fill:#B0C3C6;}
	.st20{opacity:0.7;}
	.st21{opacity:0.8;clip-path:url(#SVGID_5_);fill:#00A6E2;}
	.st22{opacity:0.8;fill:#00A6E2;}
	.st23{opacity:0.8;clip-path:url(#SVGID_7_);fill:#00A6E2;}
	.st24{clip-path:url(#SVGID_9_);}
	.st25{clip-path:url(#SVGID_11_);}
	.st26{fill:none;stroke:#B0C3C6;stroke-width:3;stroke-linejoin:round;stroke-miterlimit:10;}
	.st27{opacity:0.3;fill:none;stroke:#9FB1B3;stroke-width:3;stroke-miterlimit:10;}
	.st28{fill:#FFFFFF;stroke:#B0C3C6;stroke-width:3;stroke-linejoin:round;stroke-miterlimit:10;}
	.st29{clip-path:url(#SVGID_13_);fill:#2F3537;}
	.st30{clip-path:url(#SVGID_14_);fill:#2F3537;}
	.st31{clip-path:url(#SVGID_16_);fill:#B0C3C6;}
	.st32{fill:#33B8E8;}
	.st33{fill:#238DB4;}
	.st34{fill:#E2E7E8;}
	.st35{clip-path:url(#SVGID_20_);}
	.st36{fill:#FFFFFF;stroke:#B0C3C6;stroke-width:2;stroke-miterlimit:10;}
	.st37{fill:#B4CBCE;}
	.st38{fill:#003147;}
	.st39{fill:#FFD62B;}
	.st40{fill:#00B78E;}
	.st41{fill:#FF7824;}
	.st42{fill:#FF3223;}
	.st43{fill:#7955DF;}
	.st44{fill:none;stroke:#FF3223;stroke-width:2;stroke-miterlimit:10;}
	.st45{fill:none;stroke:#00A6E2;stroke-width:2;stroke-miterlimit:10;}
	.st46{clip-path:url(#SVGID_22_);fill:#303030;}
	.st47{fill:#F5C81F;}
	.st48{fill:#F49F90;}
	.st49{fill:#F3EEDE;}
	.st50{fill-rule:evenodd;clip-rule:evenodd;fill:#FFFFFF;}
	.st51{fill:#00131F;}
	.st52{clip-path:url(#SVGID_24_);fill:#303030;}
	.st53{fill:none;stroke:#FFFFFF;stroke-width:2;stroke-miterlimit:10;}
	.st54{clip-path:url(#SVGID_25_);fill:#303030;}
	.st55{clip-path:url(#SVGID_26_);fill:#303030;}
	.st56{opacity:0.3;fill:#B0C3C6;stroke:#B0C3C6;stroke-width:3;stroke-miterlimit:10;}
	.st57{fill:#FBFFFF;stroke:#9FB1B3;stroke-width:2;stroke-miterlimit:10;}
	.st58{fill:none;stroke:#666666;stroke-width:2;stroke-miterlimit:10;}
	.st59{clip-path:url(#SVGID_28_);fill:#2F3537;}
</style><g
     transform="matrix(6.9731473,0,0,6.9862381,-11.946295,-11.972476)"
     id="g823"><path
       id="circle4"
       d="M 29.101562,2.0000001 A 18.1,18.1 0 0 0 11,20.09961 v 4.201172 c 0,2.7 -2.2003907,4.90039 -4.9003907,4.90039 -2.3,0 -4.0996093,1.79961 -4.0996093,4.09961 -3e-7,2.3 1.8996093,4.099609 4.0996093,4.099609 1.6750277,0 3.2653389,-0.322974 4.7304687,-0.888672 -0.543802,2.113091 -2.4510482,3.689453 -4.7304687,3.689453 -2.3,0 -4.0996093,1.79961 -4.0996093,4.09961 -3e-7,2.3 1.8996093,4.099609 4.0996093,4.099609 3.5854379,0 6.8307137,-1.478299 9.2011717,-3.837891 v 5.337891 c 0,2.3 1.899609,4.099609 4.099609,4.099609 2.2,0 4.09961,-1.8 4.09961,-4 V 42.400391 H 25 V 52 c 0,2.3 1.901562,4.09961 4.101562,4.09961 2.3,0 4.09961,-1.89961 4.09961,-4.09961 v -9.599609 h 1.5 v 7.5 c 0,2.3 1.899609,4.099609 4.099609,4.099609 2.3,0 4.099609,-1.8 4.099609,-4 v -5.402343 c 2.370945,2.346424 5.623909,3.802734 9.199219,3.802734 2.3,0 4.101563,-1.799609 4.101563,-4.099609 0,-2.3 -1.901563,-4.09961 -4.101563,-4.09961 -2.285862,0 -4.196862,-1.584887 -4.734375,-3.707031 1.472025,0.576789 3.065334,0.90625 4.734375,0.90625 2.2,0 4.101563,-1.799609 4.101563,-4.099609 0,-2.3 -1.901563,-4.09961 -4.101563,-4.09961 -2.7,0 -4.898437,-2.20039 -4.898437,-4.90039 V 20.09961 A 18.1,18.1 0 0 0 29.101562,2.0000001 Z"
       style="fill:#00a6e2" /><circle
       class="st13"
       cx="29.10078"
       cy="21.600391"
       r="9"
       id="circle26"
       style="fill:#ffffff" /><circle
       style="fill:#2f3537"
       id="circle36"
       clip-path="url(#SVGID_3_)"
       r="6.3000002"
       cy="36.400002"
       cx="33.599998"
       class="st14"
       transform="translate(-0.6992188,-15.099609)" /></g></svg>